<svg width="155" height="41" viewBox="0 0 155 41" fill="transparent" xmlns="http://www.w3.org/2000/svg"><path d="M0 .728v39.2h22.064v-7.896H8.4V.728zm64.027 19.6C64.027 9.016 54.955 0 43.53 0S23.035 9.016 23.035 20.328s9.072 20.328 20.496 20.328 20.496-9.016 20.496-20.328m-8.624 0c0 6.776-5.208 12.152-11.872 12.152s-11.872-5.376-11.872-12.152S36.867 8.176 43.53 8.176s11.872 5.376 11.872 12.152m51.708-10.192C103.918 3.808 97.31 0 89.414 0 78.158 0 68.918 9.128 68.918 20.328s9.016 20.328 20.44 20.328c11.2 0 19.376-8.4 19.376-19.376v-3.136H88.35V25.2h11.368c-1.064 4.48-5.096 7.56-10.304 7.56-6.72 0-11.984-5.544-11.984-12.432 0-6.944 5.264-12.376 11.928-12.376 4.536 0 8.176 2.072 10.136 5.88zm47.151 10.192C154.261 9.016 145.189 0 133.765 0s-20.496 9.016-20.496 20.328 9.072 20.328 20.496 20.328 20.496-9.016 20.496-20.328m-8.624 0c0 6.776-5.208 12.152-11.872 12.152s-11.872-5.376-11.872-12.152 5.208-12.152 11.872-12.152 11.872 5.376 11.872 12.152"/></svg>